# xmcd
#
# Track frame offsets: 
#        150
#        37955
#        54800
#        94346
#        119590
#        149539
#        201876
#
# Disc length: 3108 seconds
#
# Revision: 0
# Processed by: cddbd v1.5.2PL0 Copyright (c) Steve Scherf et al.
# Submitted via: ExactAudioCopy v1.3
#
DISCID=610c2207
DTITLE=Endless Boogie - Vibe Killer
DYEAR=2017
DGENRE=Southern Rock
TTITLE0=Vibe Killer
TTITLE1=Let It Be Unknown
TTITLE2=High Drag, Hard Doin'
TTITLE3=Bishops At Large
TTITLE4=Back In '74
TTITLE5=Jefferson County
TTITLE6=Whilom
EXTD=
EXTT0=
EXTT1=
EXTT2=
EXTT3=
EXTT4=
EXTT5=
EXTT6=
PLAYORDER=
